<svg width="1953" height="1579" viewBox="0 0 1953 1579" fill="none" xmlns="http://www.w3.org/2000/svg">
<path d="M884.748 22.843C856.882 35.643 789.415 66.1763 734.748 90.843C680.215 115.51 634.348 136.71 633.015 138.043C631.548 139.243 629.282 142.576 627.948 145.376C625.415 150.176 625.415 155.776 625.682 370.71L626.082 590.976L629.015 601.11C639.682 638.443 664.482 665.11 699.548 676.843C706.082 679.11 715.415 681.243 720.348 681.776L729.415 682.71L729.682 716.71L730.082 750.71L750.748 725.776C762.082 712.176 771.948 700.976 772.882 700.976C773.682 700.976 783.015 711.91 793.548 725.243L812.748 749.643L813.415 716.31L814.082 682.976L934.748 682.31L1055.42 681.643L1059.42 678.576C1071.28 669.243 1070.88 652.443 1058.62 643.376C1056.75 642.043 1051.55 640.31 1046.88 639.643C1036.48 638.176 1030.48 633.91 1027.42 625.643C1021.95 611.643 1030.88 598.443 1047.15 596.31C1055.82 595.243 1063.02 590.71 1065.82 584.576C1067.95 580.31 1068.08 562.043 1068.08 361.643C1068.08 119.91 1068.75 137.776 1059.55 131.243C1055.55 128.443 1054.35 128.31 1010.08 127.643L964.748 126.976L964.082 70.3097C963.682 30.7097 962.882 12.843 961.815 10.9763C961.015 9.50968 958.482 6.57634 956.215 4.30968C952.615 0.976344 950.882 0.443011 943.682 0.043011C935.548 -0.223656 934.748 0.043011 884.748 22.843ZM1025.42 361.643V552.976H887.148C811.148 552.976 749.282 552.71 749.548 552.443C749.815 552.176 795.415 531.51 850.748 506.443C906.082 481.376 952.882 459.91 954.615 458.576C956.482 457.243 959.148 454.443 960.615 452.443C963.415 448.843 963.415 447.776 963.815 309.51L964.082 170.31H994.748H1025.42V361.643ZM729.148 617.91C729.282 629.91 729.015 639.643 728.482 639.643C723.815 639.51 708.882 634.843 702.615 631.51C693.682 626.71 682.215 615.643 677.148 606.71C670.482 595.11 669.548 595.51 701.148 595.91L728.748 596.31L729.148 617.91ZM985.682 596.31C986.082 596.71 985.548 600.443 984.615 604.71C982.348 614.31 982.348 622.31 984.615 632.043L986.348 639.643L900.215 639.376L814.082 638.976L813.682 618.976C813.548 608.043 813.682 598.31 813.948 597.376C814.482 596.043 831.415 595.643 899.815 595.643C946.615 595.643 985.282 595.91 985.682 596.31Z" fill="#008253"/>
<path d="M1112.08 52.043C1098.08 61.3763 1099.28 82.443 1113.95 89.1096C1117.68 90.843 1122.61 91.643 1129.15 91.643H1138.75V389.243C1138.75 642.71 1139.01 688.31 1140.75 696.043C1147.68 728.976 1179.15 750.976 1212.61 746.176C1234.61 743.11 1255.01 726.576 1263.68 704.976C1265.95 699.243 1266.08 682.443 1266.75 395.643L1267.41 92.3096L1281.68 91.643C1293.28 91.1096 1296.61 90.443 1299.55 88.1763C1306.61 82.9763 1308.75 78.7096 1308.75 70.3096C1308.75 61.5096 1306.35 57.1096 1298.75 51.9096L1294.35 48.9763H1205.41H1116.48L1112.08 52.043ZM1225.15 236.576L1224.75 381.643H1203.41H1182.08L1181.68 236.576L1181.41 91.643H1203.41H1225.41L1225.15 236.576Z" fill="#008253"/>
<path d="M1456.35 908.976C1423.28 913.643 1389.41 931.11 1370.48 953.243C1356.35 969.776 1347.01 988.576 1342.48 1009.64C1340.35 1019.51 1339.81 1029.11 1339.15 1062.58L1338.35 1103.64H1301.95H1265.41V1126.98V1150.31H1301.41H1337.41V1284.98V1419.64H1365.41H1393.41L1393.68 1285.24L1394.08 1150.98L1468.48 1150.58L1542.75 1150.31V1284.98V1419.64H1571.41H1600.08V1261.64V1103.64H1495.95H1391.81L1392.48 1064.58C1392.88 1034.04 1393.55 1023.78 1395.28 1017.11C1402.75 988.176 1423.41 968.043 1453.68 960.31C1464.21 957.51 1487.55 957.51 1499.28 960.176C1516.88 964.31 1537.81 976.576 1548.48 988.976L1552.88 994.176L1559.81 965.91C1563.68 950.31 1566.75 936.843 1566.75 936.043C1566.75 933.643 1548.08 922.976 1535.41 918.176C1529.55 915.91 1519.41 912.843 1512.75 911.51C1498.88 908.576 1468.88 907.243 1456.35 908.976Z" fill="#008253"/>
<path d="M209.282 938.976C128.748 952.043 61.815 1001.51 24.8817 1075.24C-11.2516 1147.38 -7.78498 1238.31 33.6817 1307.51C58.3484 1348.84 93.6817 1381.78 136.082 1402.98C175.015 1422.44 209.815 1429.91 256.082 1428.58C289.415 1427.64 314.748 1422.98 343.548 1412.84C363.815 1405.64 389.148 1391.91 403.815 1380.04L409.415 1375.51V1271.51V1167.64H315.415H221.415V1193.64V1219.64L286.482 1219.91L351.415 1220.31L351.815 1283.11L352.082 1345.91L340.748 1351.51C295.415 1373.91 240.882 1379.11 193.682 1365.51C148.482 1352.31 104.215 1314.58 81.6817 1269.64C53.415 1213.24 54.8817 1141.78 85.5484 1088.31C113.148 1040.18 157.415 1007.24 209.415 996.043C225.548 992.576 269.282 992.576 285.148 996.043C330.748 1006.04 368.748 1030.84 396.482 1068.84C400.215 1073.91 403.015 1076.58 403.282 1075.51C403.682 1074.44 407.548 1058.44 411.948 1039.91L419.948 1006.31L414.348 1001.11C382.215 971.643 339.682 950.043 296.082 940.843C278.082 937.11 227.548 936.043 209.282 938.976Z" fill="#008253"/>
<path d="M630.082 1100.98C607.015 1104.04 585.282 1112.31 565.282 1125.64C528.748 1150.04 503.548 1188.04 495.282 1231.38C491.948 1248.58 492.348 1277.78 496.082 1295.64C508.348 1355.11 553.815 1403.78 611.682 1419.24C623.548 1422.44 627.015 1422.71 650.082 1422.84C673.282 1422.84 676.482 1422.58 688.482 1419.24C712.615 1412.71 733.682 1401.78 752.482 1385.78L761.415 1378.18V1398.98V1419.64H787.415H813.415V1261.64V1103.64H787.415H761.415V1124.44V1145.24L753.815 1138.58C741.415 1128.04 733.548 1122.98 718.748 1115.78C690.748 1102.31 659.815 1097.11 630.082 1100.98ZM684.482 1154.18C720.482 1163.51 752.215 1195.24 762.215 1232.31C765.148 1243.51 766.215 1269.64 764.082 1281.51C754.348 1336.58 706.482 1375.51 652.082 1372.58C635.682 1371.78 625.815 1369.38 612.082 1362.84C581.548 1348.44 558.348 1319.11 551.282 1285.91C548.748 1273.38 548.748 1249.11 551.415 1237.38C556.482 1215.11 565.415 1199.38 582.615 1182.31C600.482 1164.71 618.482 1155.38 642.082 1151.64C653.015 1150.04 672.482 1151.11 684.482 1154.18Z" fill="#008253"/>
<path d="M1063.42 1100.44C1026.62 1105.78 1001.02 1116.98 975.815 1138.58L968.082 1145.24V1124.44V1103.64H942.082H916.082V1340.98V1578.31H944.082H972.082V1480.31V1382.31L980.482 1389.11C997.282 1402.84 1017.82 1412.98 1041.28 1419.38C1053.02 1422.58 1056.22 1422.84 1079.42 1422.84C1102.62 1422.71 1105.82 1422.44 1118.08 1419.24C1153.95 1409.64 1188.08 1384.98 1208.75 1353.64C1227.82 1324.71 1236.08 1296.98 1236.08 1261.78C1236.08 1219.91 1223.82 1186.44 1196.62 1154.31C1174.88 1128.71 1142.22 1109.11 1110.75 1102.98C1099.68 1100.84 1071.28 1099.24 1063.42 1100.44ZM1099.15 1154.18C1137.82 1164.18 1169.68 1198.31 1177.95 1238.58C1190.48 1299.64 1152.08 1358.84 1091.95 1371.11C1078.88 1373.78 1057.55 1373.11 1044.75 1369.64C1012.75 1361.11 984.082 1335.38 971.148 1303.64C960.082 1276.04 961.548 1239.11 974.748 1212.58C981.815 1198.58 987.415 1191.11 999.948 1179.38C1015.68 1164.71 1035.28 1155.11 1056.75 1151.64C1067.68 1150.04 1087.15 1151.11 1099.15 1154.18Z" fill="#008253"/>
<path d="M1725.41 1177.64C1752.48 1218.31 1774.75 1251.91 1774.75 1252.31C1774.75 1252.71 1766.88 1264.84 1757.15 1279.38C1747.55 1293.78 1722.61 1331.24 1701.95 1362.58L1664.21 1419.64H1696.48H1728.75L1761.28 1367.24C1779.28 1338.58 1797.01 1308.71 1800.88 1301.11L1807.95 1287.38L1814.88 1301.11C1818.61 1308.71 1836.48 1338.58 1854.35 1367.24L1887.01 1419.64H1920.35C1945.68 1419.64 1953.28 1419.24 1952.61 1418.04C1952.08 1417.24 1927.55 1380.18 1898.08 1335.78C1868.61 1291.38 1844.21 1254.31 1843.68 1253.51C1843.28 1252.71 1865.01 1218.84 1892.08 1178.18L1941.41 1104.31L1909.81 1103.91C1885.68 1103.64 1877.81 1104.04 1876.61 1105.24C1874.61 1107.51 1831.68 1176.98 1823.68 1190.98C1820.35 1196.84 1815.95 1205.11 1813.95 1209.24C1811.81 1213.51 1809.81 1216.98 1809.41 1216.98C1809.01 1216.98 1805.01 1209.64 1800.48 1200.58C1793.68 1187.38 1773.81 1154.44 1745.01 1109.24L1741.41 1103.64H1708.75H1676.08L1725.41 1177.64Z" fill="#008253"/>
</svg>
